<svg xmlns="http://www.w3.org/2000/svg" xmlns:xlink="http://www.w3.org/1999/xlink" width="32" height="32" viewBox="0 0 32 32">
    <defs>
        <ellipse id="b" cx="11.935" cy="12" rx="11.935" ry="12"/>
        <filter id="a" width="158.7%" height="158.3%" x="-29.3%" y="-20.8%" filterUnits="objectBoundingBox">
            <feOffset dy="2" in="SourceAlpha" result="shadowOffsetOuter1"/>
            <feGaussianBlur in="shadowOffsetOuter1" result="shadowBlurOuter1" stdDeviation="2"/>
            <feComposite in="shadowBlurOuter1" in2="SourceAlpha" operator="out" result="shadowBlurOuter1"/>
            <feColorMatrix in="shadowBlurOuter1" values="0 0 0 0 0 0 0 0 0 0 0 0 0 0 0 0 0 0 0.6 0"/>
        </filter>
        <path id="d" d="M17.284 10.476c.758.549.944 1.632.416 2.419a1.707 1.707 0 0 1-.416.432l-6.437 4.656a1.635 1.635 0 0 1-2.33-.432 1.783 1.783 0 0 1-.3-.993V7.245c0-.96.75-1.737 1.674-1.737.342 0 .676.109.956.312l6.437 4.656z"/>
        <filter id="c" width="140.9%" height="131.3%" x="-20.4%" y="-7.8%" filterUnits="objectBoundingBox">
            <feOffset dy="1" in="SourceAlpha" result="shadowOffsetOuter1"/>
            <feGaussianBlur in="shadowOffsetOuter1" result="shadowBlurOuter1" stdDeviation=".5"/>
            <feColorMatrix in="shadowBlurOuter1" values="0 0 0 0 0.356862745 0 0 0 0 0.0862745098 0 0 0 0 0.666666667 0 0 0 0.3 0"/>
        </filter>
    </defs>
    <g fill="none" fill-rule="evenodd" opacity=".7">
        <g fill="#000" transform="translate(4 2)">
            <use filter="url(#a)" xlink:href="#b"/>
            <use fill-opacity=".96" xlink:href="#b"/>
        </g>
        <g transform="translate(4 2)">
            <use fill="#000" filter="url(#c)" xlink:href="#d"/>
            <use fill="#FFF" xlink:href="#d"/>
        </g>
    </g>
</svg>
